<svg viewBox="0 0 401.56 81.28" xmlns="http://www.w3.org/2000/svg" data-name="Layer 2" id="Layer_2">
  <defs>
    <style>
      .cls-1 {
        fill: #000;
      }

      .cls-1, .cls-2, .cls-3 {
        stroke-width: 0px;
      }

      .cls-2 {
        fill: #ce0e2d;
      }

      .cls-3 {
        fill: #00953b;
      }
    </style>
  </defs>
  <g data-name="Layer 1" id="Layer_1-2">
    <g>
      <g>
        <path d="M124.41,36.29h-2.02c0-1.6-.11-3.91-.33-6.93-.22-3.02-.34-4.83-.35-5.44h-.11c-.72,2.33-1.62,4.85-2.72,7.58-1.1,2.72-1.65,4.32-1.65,4.79h-1.45c0-.5-.51-2.12-1.54-4.87-1.02-2.75-1.67-4.59-1.94-5.52-.27-.93-.46-1.59-.56-1.98h-.11c-.02.98-.16,2.96-.42,5.94-.26,2.98-.39,5.12-.39,6.42h-1.85c0-.07.24-2.04.73-5.91.49-3.87.73-6.56.73-8.07h2.83c0,.79.57,2.76,1.72,5.91,1.15,3.15,1.72,5.06,1.72,5.73h.11c0-.67.64-2.58,1.93-5.74,1.29-3.16,1.93-5.13,1.93-5.89h2.76c0,1.51.16,4.19.49,8.04.33,3.85.49,5.83.49,5.95Z" class="cls-1"></path>
        <path d="M129.56,36.29h-1.94c.1-1.43.15-3.07.15-4.91,0-2.07-.13-3.81-.38-5.21l2.15-.29c-.09,1.5-.13,3.33-.13,5.5,0,1.72.05,3.36.15,4.91ZM130.01,22.86c0,.37-.12.68-.35.95-.24.27-.57.4-1,.4-.37,0-.65-.12-.85-.35-.2-.23-.31-.51-.31-.84,0-.36.12-.67.37-.93.24-.26.58-.4,1.01-.4.35,0,.63.12.83.35.2.23.31.51.31.82Z" class="cls-1"></path>
        <path d="M141.5,36.29h-1.96c.16-1.88.24-3.94.24-6.17,0-1.1-.22-1.86-.67-2.26-.45-.4-1.09-.61-1.92-.61-1.02,0-1.96.37-2.81,1.11,0,2.44.01,5.08.04,7.93h-1.96c.12-2.43.18-4.2.18-5.29,0-1.68-.16-3.3-.47-4.88l1.89-.27.2,1.31h.09c1.06-.96,2.19-1.44,3.41-1.44s2.11.26,2.76.79c.65.53.98,1.46.98,2.81,0,.14,0,.4-.02.81-.01.4-.02.67-.02.81,0,1.2.01,2.98.04,5.35Z" class="cls-1"></path>
        <path d="M146.26,36.29h-1.94c.1-1.43.15-3.07.15-4.91,0-2.07-.13-3.81-.38-5.21l2.15-.29c-.09,1.5-.13,3.33-.13,5.5,0,1.72.05,3.36.15,4.91ZM146.71,22.86c0,.37-.12.68-.35.95-.24.27-.57.4-1,.4-.37,0-.65-.12-.85-.35-.2-.23-.31-.51-.31-.84,0-.36.12-.67.37-.93.24-.26.58-.4,1.01-.4.35,0,.63.12.83.35.2.23.31.51.31.82Z" class="cls-1"></path>
        <path d="M155.93,33.38c0,2.09-1.34,3.14-4.01,3.14-1.18,0-2.28-.12-3.31-.35l.33-1.58c.93.36,1.94.54,3.03.54,1.56,0,2.34-.44,2.34-1.33,0-.43-.17-.77-.52-1.03-.35-.25-.92-.54-1.72-.85-1.02-.4-1.75-.79-2.21-1.16-.67-.55-1.01-1.22-1.01-2s.31-1.52.92-2.1c.62-.58,1.55-.88,2.81-.88s2.22.1,2.96.31l-.33,1.55c-.77-.31-1.67-.46-2.69-.46-1.38,0-2.06.4-2.06,1.19,0,.4.15.72.46.97.31.25.91.55,1.8.9.97.38,1.68.75,2.15,1.12.69.57,1.04,1.24,1.04,2.03Z" class="cls-1"></path>
        <path d="M164.21,34.81l-.13,1.4c-.57.21-1.1.31-1.6.31-1.29,0-2.17-.33-2.64-.98-.47-.65-.71-1.83-.71-3.52,0-1.1,0-2.52.02-4.29-.4,0-.99.02-1.77.06l.06-1.56c.68.04,1.29.06,1.83.06,0-.43.04-1.45.11-3.06l1.69-.17c-.12,1.5-.18,2.58-.18,3.23.7,0,1.73-.04,3.09-.11l-.08,1.6c-1.29-.04-2.32-.06-3.1-.06-.01,1.08-.02,2.3-.02,3.65,0,1.48.16,2.45.47,2.93.31.48.89.71,1.73.71.28,0,.69-.07,1.24-.21Z" class="cls-1"></path>
        <path d="M172.71,26.08l-.48,1.71c-.56-.22-1.08-.33-1.56-.33-1.35,0-2.22.64-2.62,1.92,0,3.29.02,5.6.06,6.91h-1.9c.11-2.27.17-4.03.17-5.29,0-1.7-.17-3.32-.5-4.88l1.88-.27c.14.79.2,1.31.2,1.58h.09c.77-1.14,1.68-1.71,2.71-1.71.54,0,1.2.12,1.96.35Z" class="cls-1"></path>
        <path d="M182.36,26.08c0,.46-.54,1.92-1.62,4.38-1.24,2.81-2.01,4.8-2.31,5.95-.49,1.87-.95,3.06-1.38,3.57-.57.7-1.59,1.05-3.06,1.05l-.09-1.5c.9,0,1.64-.3,2.23-.91.59-.61.89-1.37.89-2.29,0-.79-.66-2.69-1.98-5.67-1.32-2.99-1.98-4.51-1.98-4.58h2.22c0,.19.45,1.5,1.35,3.91s1.35,3.9,1.35,4.46h.11c0-.47.38-1.82,1.14-4.05s1.14-3.67,1.14-4.32h1.96Z" class="cls-1"></path>
        <path d="M198.82,30.87c0,1.83-.53,3.26-1.58,4.29-1.05,1.03-2.29,1.54-3.72,1.54-1.33,0-2.48-.46-3.43-1.36s-1.43-2.19-1.43-3.85c0-1.85.53-3.29,1.58-4.33,1.06-1.04,2.3-1.56,3.72-1.56,1.33,0,2.47.46,3.43,1.38.95.92,1.43,2.21,1.43,3.88ZM196.96,31.25c0-1.12-.28-2.11-.84-2.98-.56-.87-1.36-1.3-2.4-1.3s-1.83.41-2.38,1.24c-.56.82-.83,1.78-.83,2.87s.28,2.12.84,2.99c.56.87,1.37,1.3,2.41,1.3s1.82-.41,2.37-1.24c.55-.83.83-1.78.83-2.86Z" class="cls-1"></path>
        <path d="M207.34,21.04l-.31,1.42c-.43-.11-.86-.16-1.29-.16-.66,0-1.1.26-1.34.78-.23.52-.35,1.59-.35,3.22.71,0,1.7-.04,2.98-.11l-.06,1.6c-1.45-.04-2.42-.06-2.91-.06,0,3.26.04,6.11.13,8.56h-1.92c.1-2.38.15-5.24.15-8.56-.44,0-1.2.02-2.29.06l.08-1.58c.99.06,1.73.09,2.21.09,0-1.9.26-3.28.79-4.14.53-.86,1.38-1.29,2.54-1.29.51,0,1.04.06,1.6.18Z" class="cls-1"></path>
        <path d="M225.18,28.79c0,2.03-.65,3.82-1.95,5.35-1.3,1.53-3.09,2.3-5.38,2.3-.75,0-1.99-.05-3.73-.15.11-2.22.16-4.67.16-7.35,0-2.52-.05-4.73-.16-6.64h1.18c.29,0,.72-.01,1.31-.03s.97-.03,1.16-.03c2.53,0,4.39.62,5.6,1.86,1.2,1.24,1.8,2.81,1.8,4.69ZM223.32,29.27c0-1.59-.51-2.92-1.52-3.99-1.01-1.07-2.58-1.6-4.7-1.6-.3,0-.71.04-1.24.11.06,1.67.09,3.38.09,5.15,0,1.93.04,3.9.12,5.89.57.11,1.12.17,1.65.17,1.89,0,3.3-.56,4.22-1.68.92-1.12,1.38-2.47,1.38-4.04Z" class="cls-1"></path>
        <path d="M229.61,36.29h-1.94c.1-1.43.15-3.07.15-4.91,0-2.07-.12-3.81-.38-5.21l2.15-.29c-.09,1.5-.13,3.33-.13,5.5,0,1.72.05,3.36.15,4.91ZM230.06,22.86c0,.37-.12.68-.35.95-.24.27-.57.4-1,.4-.37,0-.65-.12-.85-.35-.2-.23-.31-.51-.31-.84,0-.36.12-.67.37-.93s.58-.4,1.01-.4c.35,0,.63.12.83.35.2.23.31.51.31.82Z" class="cls-1"></path>
        <path d="M242.55,24.73l-.17,1.48c-1.33,0-2.07.21-2.2.64v.11c.46.56.69,1.2.69,1.91,0,1.12-.37,2.04-1.1,2.77-.73.73-1.87,1.09-3.4,1.09-.68,0-1.22-.07-1.62-.21-.35.25-.53.56-.53.93,0,.46.21.76.62.91.53.2,1.64.3,3.32.3,2.72,0,4.08.9,4.08,2.71,0,1.29-.53,2.36-1.59,3.2s-2.43,1.27-4.11,1.27-2.96-.31-3.69-.94c-.73-.63-1.1-1.38-1.1-2.26,0-.8.18-1.45.54-1.93.36-.49.81-.79,1.35-.9v-.1c-.57-.27-.85-.79-.85-1.57,0-.7.36-1.32,1.07-1.85v-.09c-.38-.19-.74-.5-1.08-.95s-.52-1-.52-1.65c0-1.14.38-2.07,1.13-2.78s1.84-1.07,3.27-1.07c1.17,0,2.08.21,2.75.63h.12c.23-1.21.83-1.82,1.8-1.82.53,0,.94.05,1.22.16ZM240.63,38.1c0-.67-.25-1.15-.74-1.42-.49-.28-1.41-.41-2.77-.41-.92,0-1.75-.04-2.51-.13-.87.42-1.31,1.04-1.31,1.86,0,1.75,1.15,2.62,3.44,2.62,1.2,0,2.14-.23,2.84-.7.7-.47,1.05-1.07,1.05-1.82ZM239.14,29.32c0-.79-.25-1.39-.75-1.81-.5-.42-1.13-.63-1.9-.63-.72,0-1.33.2-1.82.61-.49.4-.73.98-.73,1.72s.25,1.38.75,1.78c.5.41,1.14.61,1.92.61.72,0,1.32-.2,1.8-.6.48-.4.72-.96.72-1.69Z" class="cls-1"></path>
        <path d="M246.27,36.29h-1.94c.1-1.43.15-3.07.15-4.91,0-2.07-.12-3.81-.38-5.21l2.15-.29c-.09,1.5-.13,3.33-.13,5.5,0,1.72.05,3.36.15,4.91ZM246.72,22.86c0,.37-.12.68-.35.95-.24.27-.57.4-1,.4-.37,0-.65-.12-.85-.35-.2-.23-.31-.51-.31-.84,0-.36.12-.67.37-.93s.58-.4,1.01-.4c.35,0,.63.12.83.35.2.23.31.51.31.82Z" class="cls-1"></path>
        <path d="M255,34.81l-.13,1.4c-.57.21-1.1.31-1.6.31-1.29,0-2.17-.33-2.64-.98-.47-.65-.71-1.83-.71-3.52,0-1.1,0-2.52.02-4.29-.4,0-.99.02-1.77.06l.06-1.56c.68.04,1.29.06,1.83.06,0-.43.04-1.45.11-3.06l1.69-.17c-.12,1.5-.18,2.58-.18,3.23.7,0,1.73-.04,3.09-.11l-.08,1.6c-1.29-.04-2.32-.06-3.1-.06-.01,1.08-.02,2.3-.02,3.65,0,1.48.16,2.45.47,2.93.31.48.89.71,1.74.71.28,0,.69-.07,1.24-.21Z" class="cls-1"></path>
        <path d="M265.08,36.29l-1.69.06c-.09-.35-.13-.68-.13-1h-.11c-.88.8-2.08,1.2-3.6,1.2-.82,0-1.53-.24-2.13-.73-.59-.48-.89-1.17-.89-2.07,0-1.1.47-1.99,1.4-2.66.93-.67,2.66-1.02,5.19-1.06.02-.17.03-.37.03-.59,0-.88-.23-1.47-.7-1.76-.47-.29-1.18-.44-2.13-.44-1.12,0-2.23.14-3.32.42l.18-1.48c1.07-.31,2.31-.46,3.71-.46,1.27,0,2.26.26,2.95.79.69.53,1.04,1.42,1.04,2.69,0,.34-.02.95-.05,1.83-.03.88-.05,1.47-.05,1.77,0,1.3.1,2.46.29,3.48ZM263.18,34.2c-.04-1.09-.05-2.07-.05-2.93-1.35,0-2.37.1-3.07.3-1.17.36-1.76,1.04-1.76,2.05s.69,1.46,2.06,1.46c1.18,0,2.12-.29,2.83-.88Z" class="cls-1"></path>
        <path d="M269.88,36.29h-2.06c.13-2.36.19-5.03.19-8.01s-.1-5.26-.31-7.1l2.18-.11c-.14,1.95-.2,4.35-.2,7.21s.07,5.61.2,8.01Z" class="cls-1"></path>
        <path d="M289.27,28.79c0,2.03-.65,3.82-1.95,5.35-1.3,1.53-3.09,2.3-5.38,2.3-.75,0-1.99-.05-3.73-.15.11-2.22.16-4.67.16-7.35,0-2.52-.05-4.73-.16-6.64h1.18c.29,0,.72-.01,1.31-.03s.97-.03,1.16-.03c2.53,0,4.39.62,5.6,1.86,1.2,1.24,1.8,2.81,1.8,4.69ZM287.4,29.27c0-1.59-.51-2.92-1.52-3.99-1.01-1.07-2.58-1.6-4.7-1.6-.3,0-.71.04-1.24.11.06,1.67.09,3.38.09,5.15,0,1.93.04,3.9.12,5.89.57.11,1.12.17,1.65.17,1.89,0,3.3-.56,4.22-1.68.92-1.12,1.38-2.47,1.38-4.04Z" class="cls-1"></path>
        <path d="M300.56,29.98c0,.3-.01.72-.04,1.25l-7.38.13c.07,1.05.48,1.92,1.21,2.63.74.71,1.71,1.06,2.93,1.06,1.09,0,2.11-.13,3.06-.4l-.18,1.51c-.7.28-1.71.42-3.04.42-1.86,0-3.28-.51-4.26-1.53-.98-1.02-1.47-2.26-1.47-3.72,0-1.56.45-2.91,1.34-4.03.89-1.13,2.09-1.69,3.59-1.69,1.38,0,2.43.41,3.15,1.22.72.82,1.08,1.87,1.08,3.15ZM298.77,30c0-2.01-.84-3.02-2.52-3.02s-2.73,1.05-3.04,3.14l5.56-.12Z" class="cls-1"></path>
        <path d="M311.72,26.08c0,.35-.72,2.04-2.18,5.08-1.45,3.03-2.17,4.74-2.17,5.13h-1.44c0-.5-.64-2.25-1.92-5.26-1.28-3-1.92-4.65-1.92-4.95h2.08c0,.34.47,1.71,1.4,4.09s1.4,3.75,1.4,4.09h.1c0-.33.44-1.64,1.33-3.94.88-2.3,1.33-3.71,1.33-4.24h2Z" class="cls-1"></path>
        <path d="M322.42,29.98c0,.3-.01.72-.04,1.25l-7.38.13c.07,1.05.48,1.92,1.21,2.63.74.71,1.71,1.06,2.93,1.06,1.09,0,2.11-.13,3.06-.4l-.18,1.51c-.7.28-1.71.42-3.04.42-1.86,0-3.28-.51-4.26-1.53-.98-1.02-1.47-2.26-1.47-3.72,0-1.56.45-2.91,1.34-4.03.89-1.13,2.09-1.69,3.59-1.69,1.38,0,2.43.41,3.15,1.22.72.82,1.08,1.87,1.08,3.15ZM320.63,30c0-2.01-.84-3.02-2.52-3.02s-2.73,1.05-3.04,3.14l5.56-.12Z" class="cls-1"></path>
        <path d="M326.98,36.29h-2.06c.13-2.36.19-5.03.19-8.01s-.1-5.26-.31-7.1l2.18-.11c-.14,1.95-.2,4.35-.2,7.21s.07,5.61.2,8.01Z" class="cls-1"></path>
        <path d="M339.75,30.87c0,1.83-.53,3.26-1.58,4.29-1.05,1.03-2.29,1.54-3.72,1.54-1.33,0-2.48-.46-3.43-1.36-.96-.91-1.43-2.19-1.43-3.85,0-1.85.53-3.29,1.58-4.33,1.06-1.04,2.3-1.56,3.72-1.56,1.33,0,2.47.46,3.43,1.38.95.92,1.43,2.21,1.43,3.88ZM337.89,31.25c0-1.12-.28-2.11-.84-2.98-.56-.87-1.36-1.3-2.4-1.3s-1.82.41-2.38,1.24c-.56.82-.83,1.78-.83,2.87s.28,2.12.84,2.99c.56.87,1.37,1.3,2.41,1.3s1.82-.41,2.37-1.24c.55-.83.83-1.78.83-2.86Z" class="cls-1"></path>
        <path d="M351.97,30.77c0,1.55-.44,2.9-1.33,4.07-.88,1.16-2.11,1.75-3.69,1.75-1.32,0-2.18-.24-2.6-.71h-.11c0,1.99.02,3.77.06,5.33h-2.02c.17-1.91.25-4.26.25-7.06,0-3.45-.18-6.12-.54-8.01l1.89-.27.16,1.06h.11c.69-.81,1.82-1.21,3.37-1.21,1.37,0,2.45.5,3.24,1.5.79,1,1.19,2.19,1.19,3.56ZM350.06,31.02c0-1.06-.28-1.97-.84-2.72-.56-.76-1.34-1.13-2.35-1.13-1.29,0-2.21.39-2.77,1.17.11,2.41.17,4.47.17,6.2.58.49,1.34.73,2.27.73,1.18,0,2.06-.42,2.65-1.25.58-.83.88-1.83.88-3Z" class="cls-1"></path>
        <path d="M367.95,30.07c0-1.15-.2-1.9-.6-2.27-.4-.37-1.05-.55-1.96-.55-.77,0-1.56.38-2.37,1.13-.03.87-.04,1.73-.04,2.57,0,1.2.02,2.98.06,5.35h-1.96c.16-2.04.24-4.11.24-6.22,0-1.15-.2-1.9-.6-2.27-.4-.37-1.03-.55-1.91-.55s-1.73.38-2.51,1.13c0,2.27.01,4.91.04,7.92h-1.96c.14-2.43.2-4.2.2-5.29,0-1.65-.16-3.28-.48-4.88l1.89-.27.19,1.3h.11c.93-.95,1.97-1.43,3.1-1.43,1.7,0,2.79.48,3.28,1.43h.12c1.08-.95,2.15-1.43,3.2-1.43,1.2,0,2.11.26,2.73.79s.92,1.46.92,2.8c0,.14,0,.4-.02.81s-.02.67-.02.81c0,1.2.01,2.98.04,5.35h-1.96c.17-1.88.25-3.95.25-6.22Z" class="cls-1"></path>
        <path d="M381.28,29.98c0,.3-.01.72-.04,1.25l-7.38.13c.07,1.05.48,1.92,1.21,2.63.74.71,1.71,1.06,2.93,1.06,1.09,0,2.11-.13,3.06-.4l-.18,1.51c-.7.28-1.71.42-3.04.42-1.86,0-3.28-.51-4.26-1.53-.98-1.02-1.47-2.26-1.47-3.72,0-1.56.45-2.91,1.34-4.03.89-1.13,2.09-1.69,3.59-1.69,1.38,0,2.43.41,3.15,1.22.72.82,1.08,1.87,1.08,3.15ZM379.49,30c0-2.01-.84-3.02-2.52-3.02s-2.73,1.05-3.04,3.14l5.56-.12Z" class="cls-1"></path>
        <path d="M392.86,36.29h-1.96c.16-1.88.24-3.94.24-6.17,0-1.1-.22-1.86-.67-2.26-.45-.4-1.09-.61-1.92-.61-1.02,0-1.96.37-2.81,1.11,0,2.44.01,5.08.04,7.93h-1.96c.12-2.43.18-4.2.18-5.29,0-1.68-.16-3.3-.47-4.88l1.89-.27.2,1.31h.09c1.06-.96,2.2-1.44,3.41-1.44s2.11.26,2.76.79c.65.53.98,1.46.98,2.81,0,.14,0,.4-.02.81s-.02.67-.02.81c0,1.2.01,2.98.04,5.35Z" class="cls-1"></path>
        <path d="M401.56,34.81l-.13,1.4c-.57.21-1.1.31-1.6.31-1.29,0-2.17-.33-2.64-.98-.47-.65-.71-1.83-.71-3.52,0-1.1,0-2.52.02-4.29-.4,0-.99.02-1.77.06l.06-1.56c.68.04,1.29.06,1.83.06,0-.43.04-1.45.11-3.06l1.69-.17c-.12,1.5-.18,2.58-.18,3.23.7,0,1.73-.04,3.09-.11l-.08,1.6c-1.29-.04-2.32-.06-3.1-.06-.01,1.08-.02,2.3-.02,3.65,0,1.48.16,2.45.47,2.93.31.48.89.71,1.74.71.28,0,.69-.07,1.24-.21Z" class="cls-1"></path>
        <path d="M116.9,61.29l-1.69.06c-.09-.35-.13-.68-.13-1h-.11c-.88.8-2.08,1.2-3.6,1.2-.82,0-1.53-.24-2.13-.73-.59-.48-.89-1.17-.89-2.07,0-1.1.47-1.99,1.4-2.66.93-.67,2.66-1.02,5.19-1.06.02-.17.03-.37.03-.59,0-.88-.23-1.47-.7-1.76-.47-.29-1.18-.44-2.13-.44-1.12,0-2.23.14-3.32.42l.18-1.48c1.07-.31,2.31-.46,3.71-.46,1.27,0,2.26.26,2.95.79.69.53,1.04,1.42,1.04,2.69,0,.34-.02.95-.05,1.83-.03.88-.05,1.47-.05,1.77,0,1.3.1,2.46.29,3.48ZM115,59.2c-.04-1.09-.05-2.07-.05-2.93-1.35,0-2.37.1-3.07.3-1.17.36-1.76,1.04-1.76,2.05s.69,1.46,2.06,1.46c1.18,0,2.12-.29,2.83-.88Z" class="cls-1"></path>
        <path d="M128.73,61.29h-1.96c.16-1.88.24-3.94.24-6.17,0-1.1-.22-1.86-.67-2.26-.45-.4-1.09-.61-1.92-.61-1.02,0-1.96.37-2.81,1.11,0,2.44.01,5.08.04,7.93h-1.96c.12-2.43.18-4.2.18-5.29,0-1.68-.16-3.3-.47-4.88l1.89-.27.2,1.31h.09c1.06-.96,2.19-1.44,3.41-1.44s2.11.26,2.76.79c.65.53.98,1.46.98,2.81,0,.14,0,.4-.02.81-.01.4-.02.67-.02.81,0,1.2.01,2.98.04,5.35Z" class="cls-1"></path>
        <path d="M140.8,61.28l-1.6.05c-.06-.31-.09-.63-.09-.98h-.12c-.75.82-1.87,1.22-3.35,1.22-1.36,0-2.44-.49-3.25-1.48s-1.21-2.18-1.21-3.58c0-1.58.45-2.95,1.34-4.09.9-1.15,2.16-1.72,3.78-1.72,1.16,0,1.99.24,2.49.71h.09c0-1.78-.05-3.52-.15-5.23l2.04-.08c-.14,1.82-.2,4.2-.2,7.14s.08,5.67.23,8.02ZM139.07,59.16c0-2.23-.06-4.37-.18-6.43-.58-.48-1.3-.72-2.17-.72-1.21,0-2.12.4-2.72,1.21-.6.8-.9,1.82-.9,3.03,0,1.09.28,2,.85,2.75s1.36,1.12,2.37,1.12c1.27,0,2.18-.32,2.75-.96Z" class="cls-1"></path>
        <path d="M151.06,61.29h-2.04c.11-2.32.16-4.77.16-7.35s-.05-4.75-.16-6.64h2.04c-.1,1.96-.15,4.17-.15,6.64,0,2.59.05,5.04.15,7.35Z" class="cls-1"></path>
        <path d="M163.6,61.29h-1.96c.16-1.88.24-3.94.24-6.17,0-1.1-.22-1.86-.67-2.26-.45-.4-1.09-.61-1.92-.61-1.02,0-1.96.37-2.81,1.11,0,2.44.01,5.08.04,7.93h-1.96c.12-2.43.18-4.2.18-5.29,0-1.68-.16-3.3-.47-4.88l1.89-.27.2,1.31h.09c1.06-.96,2.19-1.44,3.41-1.44s2.11.26,2.76.79c.65.53.98,1.46.98,2.81,0,.14,0,.4-.02.81-.01.4-.02.67-.02.81,0,1.2.01,2.98.04,5.35Z" class="cls-1"></path>
        <path d="M172.45,46.05l-.31,1.42c-.43-.11-.86-.16-1.29-.16-.66,0-1.1.26-1.34.78-.23.52-.35,1.59-.35,3.22.71,0,1.7-.04,2.98-.11l-.06,1.6c-1.45-.04-2.42-.06-2.91-.06,0,3.26.04,6.11.13,8.56h-1.92c.1-2.38.15-5.24.15-8.56-.44,0-1.2.02-2.29.06l.08-1.58c.99.06,1.73.09,2.21.09,0-1.9.26-3.28.79-4.14.53-.86,1.38-1.29,2.54-1.29.51,0,1.04.06,1.6.18Z" class="cls-1"></path>
        <path d="M183.68,55.87c0,1.83-.53,3.26-1.58,4.29-1.05,1.03-2.29,1.54-3.72,1.54-1.33,0-2.48-.46-3.43-1.36s-1.43-2.19-1.43-3.85c0-1.85.53-3.29,1.58-4.33,1.06-1.04,2.3-1.56,3.72-1.56,1.33,0,2.47.46,3.43,1.38.95.92,1.43,2.21,1.43,3.88ZM181.82,56.25c0-1.12-.28-2.11-.84-2.98-.56-.87-1.36-1.3-2.4-1.3s-1.82.41-2.38,1.24c-.56.82-.83,1.78-.83,2.87s.28,2.12.84,2.99c.56.87,1.37,1.3,2.41,1.3s1.82-.41,2.37-1.24c.55-.83.83-1.78.83-2.86Z" class="cls-1"></path>
        <path d="M192.65,51.08l-.48,1.71c-.56-.22-1.08-.33-1.56-.33-1.35,0-2.22.64-2.62,1.92,0,3.29.02,5.6.06,6.91h-1.9c.11-2.27.17-4.03.17-5.29,0-1.7-.17-3.32-.5-4.88l1.88-.27c.14.79.2,1.31.2,1.58h.09c.77-1.14,1.68-1.71,2.71-1.71.54,0,1.2.12,1.96.35Z" class="cls-1"></path>
        <path d="M207.45,55.07c0-1.15-.2-1.9-.6-2.27-.4-.37-1.05-.55-1.96-.55-.77,0-1.56.38-2.37,1.13-.03.87-.04,1.73-.04,2.57,0,1.2.02,2.98.06,5.35h-1.96c.16-2.04.24-4.11.24-6.22,0-1.15-.2-1.9-.6-2.27-.4-.37-1.03-.55-1.91-.55s-1.73.38-2.51,1.13c0,2.27.01,4.91.04,7.92h-1.96c.14-2.43.2-4.2.2-5.29,0-1.65-.16-3.28-.48-4.88l1.89-.27.19,1.3h.11c.93-.95,1.97-1.43,3.1-1.43,1.7,0,2.79.48,3.28,1.43h.12c1.08-.95,2.15-1.43,3.2-1.43,1.2,0,2.11.26,2.73.79s.92,1.46.92,2.8c0,.14,0,.4-.02.81s-.02.67-.02.81c0,1.2.01,2.98.04,5.35h-1.96c.17-1.88.25-3.95.25-6.22Z" class="cls-1"></path>
        <path d="M220.04,61.29l-1.69.06c-.09-.35-.13-.68-.13-1h-.11c-.88.8-2.08,1.2-3.6,1.2-.82,0-1.53-.24-2.13-.73-.59-.48-.89-1.17-.89-2.07,0-1.1.47-1.99,1.4-2.66.93-.67,2.66-1.02,5.19-1.06.02-.17.03-.37.03-.59,0-.88-.23-1.47-.7-1.76-.47-.29-1.18-.44-2.13-.44-1.12,0-2.23.14-3.32.42l.18-1.48c1.07-.31,2.31-.46,3.71-.46,1.27,0,2.26.26,2.95.79.69.53,1.04,1.42,1.04,2.69,0,.34-.02.95-.05,1.83-.03.88-.05,1.47-.05,1.77,0,1.3.1,2.46.29,3.48ZM218.14,59.2c-.04-1.09-.05-2.07-.05-2.93-1.35,0-2.37.1-3.07.3-1.17.36-1.76,1.04-1.76,2.05s.69,1.46,2.06,1.46c1.18,0,2.12-.29,2.83-.88Z" class="cls-1"></path>
        <path d="M228.65,59.81l-.13,1.4c-.57.21-1.1.31-1.6.31-1.29,0-2.17-.33-2.64-.98-.47-.65-.71-1.83-.71-3.52,0-1.1,0-2.52.02-4.29-.4,0-.99.02-1.77.06l.06-1.56c.68.04,1.29.06,1.83.06,0-.43.04-1.45.11-3.06l1.69-.17c-.12,1.5-.18,2.58-.18,3.23.7,0,1.73-.04,3.09-.11l-.08,1.6c-1.29-.04-2.32-.06-3.1-.06-.01,1.08-.02,2.3-.02,3.65,0,1.48.16,2.45.47,2.93.31.48.89.71,1.74.71.28,0,.69-.07,1.24-.21Z" class="cls-1"></path>
        <path d="M232.61,61.29h-1.94c.1-1.43.15-3.07.15-4.91,0-2.07-.12-3.81-.38-5.21l2.15-.29c-.09,1.5-.13,3.33-.13,5.5,0,1.72.05,3.36.15,4.91ZM233.06,47.86c0,.37-.12.68-.35.95-.24.27-.57.4-1,.4-.37,0-.65-.12-.85-.35-.2-.23-.31-.51-.31-.84,0-.36.12-.67.37-.93s.58-.4,1.01-.4c.35,0,.63.12.83.35.2.23.31.51.31.82Z" class="cls-1"></path>
        <path d="M245.26,55.87c0,1.83-.53,3.26-1.58,4.29-1.05,1.03-2.29,1.54-3.72,1.54-1.33,0-2.48-.46-3.43-1.36-.96-.91-1.43-2.19-1.43-3.85,0-1.85.53-3.29,1.58-4.33,1.06-1.04,2.3-1.56,3.72-1.56,1.33,0,2.47.46,3.43,1.38.95.92,1.43,2.21,1.43,3.88ZM243.4,56.25c0-1.12-.28-2.11-.84-2.98-.56-.87-1.36-1.3-2.4-1.3s-1.82.41-2.38,1.24c-.56.82-.83,1.78-.83,2.87s.28,2.12.84,2.99c.56.87,1.37,1.3,2.41,1.3s1.82-.41,2.37-1.24c.55-.83.83-1.78.83-2.86Z" class="cls-1"></path>
        <path d="M256.84,61.29h-1.96c.16-1.88.24-3.94.24-6.17,0-1.1-.22-1.86-.67-2.26-.45-.4-1.09-.61-1.92-.61-1.02,0-1.96.37-2.81,1.11,0,2.44.01,5.08.04,7.93h-1.96c.12-2.43.18-4.2.18-5.29,0-1.68-.16-3.3-.47-4.88l1.89-.27.2,1.31h.09c1.06-.96,2.2-1.44,3.41-1.44s2.11.26,2.76.79c.65.53.98,1.46.98,2.81,0,.14,0,.4-.02.81s-.02.67-.02.81c0,1.2.01,2.98.04,5.35Z" class="cls-1"></path>
      </g>
      <g>
        <path d="M94.73,8.62c-.19.18-.4-.16-.72-.07.11-.28.55,0,.72.07" class="cls-2"></path>
        <path d="M38.95,20.5c-.57-.22-1.38-.2-1.51-.85.49.3,1.72-.15,1.51.85" class="cls-3"></path>
        <path d="M21.58,39.18c.03.34-.32.3-.26.66-.33,0-.6-.05-.85-.13-.04-.63.38-.8.79-.98.09.17.34.18.33.46" class="cls-3"></path>
        <path d="M20.27,47.44c-.08-.36-.27-.6-.39-.92-.03-.21.18-.17.2-.33-.09-.25-.23-.46-.2-.85.18-.09.35-.18.52-.26.22.11.32.33.59.39-.6.44.22,1.74-.72,1.97" class="cls-3"></path>
        <path d="M94.73,2.34c-.19.18-.4-.16-.72-.07.11-.28.55,0,.72.07" class="cls-2"></path>
        <path d="M44.92,19.19c-.81-.17-1.59-.38-1.64-1.31.39.07.63.29.72.65.37.16.82.23.92.66" class="cls-3"></path>
        <path d="M25.52,29.87c-.14.49-.52.75-.72,1.18-.18-.06-.28-.2-.46-.26.28-.29.38-.76.65-1.05.26-.04.38.06.53.13" class="cls-3"></path>
        <path d="M22.5,31.7c-.31,1.28-.35,2.84-.85,3.93-.56-.02-.03-1.12-.33-1.24-.32.05-.11.63-.46.66-.25.03-.27-.17-.46-.2v-.59c.7-.5.65-1.92-.07-2.36.1-.49.87-.31.98-.79.43.17.72.46,1.18.59" class="cls-3"></path>
        <path d="M17.39,37.54c.47.62.12,1.96-.85,1.77.19-.69.58-1.17.85-1.77" class="cls-3"></path>
        <path d="M99.91,2.41c-.24-.29-.5-.55-.79-.79-1.5-1.44-5.96-2.42-7.87-.72.35.03.09.22,0,.33h-.07v.2c.32,0,.37.28.72.26.7-.02,1.17.19,1.7.33-.2.09-.36-.19-.46,0,.2.13.68-.03.79.2-4.84-.23-8,2.08-8.26,6.42-.18.03.05-.36-.13-.33-.11-1.17.41-1.73.46-2.75.87-1.6,2.14-2.8,4-3.41.33-.02.71.01.79-.26-1.36,0-2.44.83-3.48,1.38-.17.19-.31.71-.59.59-.04-.17.27-.33.06-.46-.59.55-.91,1.36-1.44,1.97-.2.8-.41,1.6-.98,2.03-.13-.76.45-1.17.26-1.77-.08.25-.2.8-.39.72.57-2.18,1.94-3.56,3.54-4.72-.47.12-.72.46-1.11.66.02-.14.18-.13.2-.26.6-.25.97-.73,1.64-.92.48-.39,1.42-.33,1.84-.79-2.23.27-3.66,1.32-4.92,2.56-.25.19-.47.41-.66.66-.57.72-.92,1.66-1.38,2.49.03-.41.39-.84.33-1.12-2.06,3.89-.44,9.61,1.9,12,.69.62,1.48,1.14,2.29,1.64,1.66.59,3.83.96,6.03.79.2-.04.56.08.65-.06.25-.05.56-.12.79,0,4.18-1.19,6.75-3.99,7.21-8.91.23-3.77-1.06-6.02-2.69-7.93" class="cls-2"></path>
        <path d="M85.89,32.49c-.32.55-.87,1.36-.53,2.16h.33c-.23-.6.43-1.16.59-1.77-.02-.24-.15-.37-.39-.39" class="cls-3"></path>
        <path d="M19.62,40.49c.04-.57.12-1.11.19-1.64-.62-.3-.26-1-.13-1.57-1.06.34-1.74,1.68-1.44,2.95.21,0,.29.15.53.13.16-.19-.08-.78.39-.66.04.33-.25.66-.07.92-.08-.36.27-.03.53-.13" class="cls-3"></path>
        <path d="M78.67,46.91c-.86.51-1.38,1.37-2.1,2.03-.19.25-.41.46-.65.65-1.13,1.06-2.38,1.99-3.15,3.41-3.45,2.75-6.86,5.55-11.73,6.88.43-.51,1.25-.63,1.83-.98,2.15-2.41,6.36-2.77,7.87-5.83.28-.18.44-.48.72-.65.32-.38.67-.73,1.05-1.05,2.27-1.71,4.6-3.36,5.96-5.97.47.24.21.5,0,.85-.03.32.3.27.2.65M24.4,68.02c-1.52-.63-2.8-1.48-4.26-2.16-.27-.94-1.62-1.54-2.49-1.9-.13-.28-.34-.49-.46-.79-1.06-.37-1.3-1.88-2.55-1.83-.49-1.68-2.67-1.99-2.29-4.33,1.21,1.15,2.12,2.6,3.21,3.87.35.3.68.63.98.98.85.9,2.28,1.22,3.08,2.16.24.19.46.41.65.65,1.22,1.08,2.91,1.68,4.33,2.56.02.35-.11.54-.19.79M10.83,49.6c-.01.23-.19.28-.39.33-.27-.64,0-1.83-.92-1.83.12-.45.44-.7.39-1.31v-.85c-.06-1.14-.39-2.76.33-3.41-.21-.18-.53-.26-.72-.46.36-.08.62-.25.79-.52,0-.44-.06-.94.39-.92.2.19,0,1.07.07,1.57v2.82c.15.13.02.54.06.79v.85c.15.26.02.81.07,1.18-.04.57.09,1.31-.07,1.77M3.49,44.03c-.06-.64-.24-1.16-.2-1.9-.11-.44-.11-1.33,0-1.77.12-2.28.72-4.09,1.97-5.25-1.22,2.08-.52,6.65-1.77,8.92M95.19,29.8c-.28-.31-.65-.38-.85-.72-.7-1.21.13-3.04.26-4.26-.61-.35-.67-1.25-1.18-1.7.2-.29.21-1.05-.19-1.11-.69.12-1.37.82-2.23.98-.14.37-.56.44-.46,1.05-1.19,1.04-1.38,3.08-1.71,4.98-.03.27.24.25.26.46-.09.31-.44.8-.13,1.11-.25.23-.26.7-.39,1.05.04.78-.11,1.38-.33,1.9-1.26,1.17-2.27,2.57-3.21,4.06-.47.05-.78-.05-.98-.26.34-.58,1.05-1.97.06-2.36-.17.12-.15.46-.06.66-.56.73-1.03,1.54-1.18,2.69-.69,1.04-1.27,2.18-2.03,3.15h-.78c-.42.24-.54.77-.92,1.05-2.82.46-4.66,1.9-5.38,4.46,0,.4-.04.83.13,1.05-1.6,1.75-2.68,4.01-5.18,4.85.11-.14.43-.4.2-.66-.85.59-1.76,1.12-2.49,1.83-1.55.57-2.72,1.52-4,2.36h-.46c-1.38,1.2-3.42,1.74-4.85,2.89-2.66.57-5.07,1.4-7.93,1.77-.4.05-.59-.11-.98-.06-.27,0-.32.21-.59.19-.28.02-.35-.17-.65-.13-.73.17-1.47.32-2.3.39-.19-.12-.47-.14-.72-.2-7.43-.41-12.52-3.17-17.83-5.7-.03-.12.09-.4-.13-.33-3.01-1.25-5.12-3.4-6.56-6.23.02-.15.11-.25.07-.46-.19-.34-.47-.58-.59-.99-.12-.23.16-.33.06-.72-.98-1.09.5-3.66-.65-4.72-.24-.04-.25.14-.46.13-.05.16-.18.26-.19.46-.15.13-.03.54-.07.79-.31.94-.23,2.32.13,3.14.03.24-.26.17-.2.46.08.16.26.22.26.46-.7.55-.2,1.29.19,1.77-.08.35-.34.53-.26,1.05.17.23.47.32.92.26.42,1.28,2.45,2.51,1.18,4.06-.41.16-.46-.03-.85.07-2.4-2.48-4.17-5.57-3.93-10.69.82-7.17,3.85-12.14,7.41-16.58-.32-.39-.11-.89.2-1.18.21.08.29.28.52.33,1.52-.76,2.18-2.36,3.21-3.61.25-.19.46-.41.66-.65.49-.49,1.3-.67,2.03-.92.2-.04.56.08.65-.07h.13c.04-.16.25-.14.2-.39.2-.04.56.08.65-.06,1.16,0,2.24-.96,3.21-.33.79-.39,1.59.21,2.56.07-.05-.04-.31-.43-.2-.85.37-.05.54.11.92.07.18-.92-.97-.52-1.57-.66-.24-.13-.24-.5-.33-.79-.05.47-.55.55-.79.66.05.36.58.25.52.72-1.01.28-1.72-.04-2.3-.79-.08.45.34.41.33.79-.18-.17-.35-.35-.52-.52,0-.26.13-.39.13-.66-.32-.09-.69-.14-1.11-.13-.14-.11-.72-.11-.85,0-1.24-.02-1.62.83-2.55,1.12-1.14-.19-2.28.04-2.55.92-2.19,1.03-4,2.43-5.64,4-.25.19-.46.41-.66.66-3.85,3.93-6.57,8.98-8.45,14.88-.27-.42-.4-.89-.33-1.51.21-1.92,1.81-3.51,1.9-5.51.49-.38.41-1.33.98-1.64h.46c-.07-1.7,1.07-2.72,1.84-3.8.33-.28.64-.58.92-.92,1.1-.93,2.03-2.04,2.56-3.54.24.11.38.32.59.46.29-.24.55-.5.79-.79,3.04-2.97,7.49-4.53,12.65-5.38.58.54,1.74.09,2.56.39v.52c.38-.31.53.15.92.2h1.11c.94.27,1.75.65,2.56,1.05.39.07.96-.04,1.11.26.06-.24.12-.49.26-.66-.01.36.61.08.78.26-.56.35-.17,1.06.26,1.31.29-.06.08-.62.33-.72.31.23.8.29.79.85.39.24.86.4,1.11.79.02.9.42,1.42,1.05,1.7-.14-1.11-.55-1.94-.98-2.75-.49-.26-.88-.61-1.38-.85-.1-.23-.26-.4-.39-.59-.45-.72-2.37-.63-1.9-1.84.48.11.69.49,1.37.39-.14-.57-.74-.7-1.44-.72-.19-.03-.13-.31-.33-.33-.83-.11-1.12-.76-2.03-.79.03-.41-.33-.41-.46-.65-.74-.42-2.19-.13-2.16-1.31.4.07.45-.21.79-.2,1.06.53,2.45.74,3.6,1.18.12.21.33.32.52.46,1.53.13,2.2,1.12,3.41,1.57.91,1.28,2.69,1.68,3.47,3.08.12.1.43,0,.53.13.15.35.1.9.46,1.05.71-.71-.46-1.22-.32-2.16-.57-.5-.97-1.18-1.51-1.7.17-.37.62-.09.72-.26.02-.26-.15-.33-.13-.59-3.84-3.06-8.16-6-14.88-5.96-.39-.23-1.02-.21-1.64-.2-.3.04-.78-.08-.98.06-7.97,1.06-13.41,4.64-18.16,8.91-.36.3-.68.63-.98.98-1.23,1.6-2.84,2.83-3.73,4.78-.98.83-1.5,2.13-2.1,3.34-1.15.92-1.36,2.79-2.23,4-.61,1.49-1.34,2.85-1.51,4.78-.96,1.49-1,3.89-1.44,5.9-.11.09-.11.63,0,.72-.01.21.12.28.07.52-.49.98-.17,2.75-.26,4.13.04.24-.09.65.06.78.55,8.17,4.1,13.33,8.13,18.03.19.24.41.46.65.65.43.55.83,1.13,1.51,1.44,0-.2,0-.4.2-.39,1.1.48,1.53,1.61,2.75,1.97-.43-.94-1.36-1.39-2.1-2.03-1.48-2.06-4.07-3.01-4.65-5.96.87.83,1.12,2.29,2.75,2.36-.15.2-.32.38-.46.59.77.38,1.34.97,1.97,1.51.39.44.8.86,1.25,1.24.73.63,1.38,1.33,2.55,1.51,0,.49.27.69.39,1.05.18.12.33.28.46.46,1.19.88,2.91,1.24,4.19,2.03,1.14.95,2.53,1.67,4.13,2.16.37-.02.58.12.98.06.94.31,1.92.57,2.69,1.05.49.12.83.4,1.31.53.35.28,1.04.23,1.31.59-1.06.27-2.04-.65-3.21-.72-.09-.11-.63-.11-.72,0-.2-.02-.45.25-.52.13.09-.17.08-.45.13-.66-.7-.69-2.18.53-2.62-.33.28.07,1.06.23.98-.26-.3-.6-1.41-.18-1.84.2.27-.28.14-1.03-.2-1.11-.27-.04-1.05.49-1.38,0,.04-.31.6-.1.79-.26-.76-.56-2.04.49-2.49-.46-.1-.47-.03-1.11-.59-1.11-.12.29.23.68-.07.72-.31-.68-.89-1.76-1.9-1.31.45.08.98.34.79.85-.91-.49-1.58-1.22-2.75-1.44.19.64,1.1.56,1.57.92.05.15.06.33.13.46,6.35,4.29,14.65,6.63,24.51,7.41.77.11,1.99.11,2.75,0,3.82-.37,7.62-.37,10.69-1.51,3.13-.3,5.53-1.33,7.87-2.43.41-.51,1.06-.77,1.44-1.31.92-.48,1.9-.9,2.75-1.44.25-.07.19.16.4.13.15-.24.37-.41.66-.52,2.83-1.34,5.35-2.99,7.6-4.92.24-.19.46-.41.65-.65,1.61-2.21,3.66-3.99,5.7-5.77.51-.45.99-.93,1.44-1.44.58-.85,1.47-1.37,1.71-2.56,2.9-3.47,4.98-7.77,6.23-12.91.29-.28.46-.67.59-1.11-.29-.79.37-1.07.13-1.9-.62.5-.85,1.37-1.11,2.23-1.53,2.27-3.15,4.45-4.46,6.95-.33.19-.45.6-.79.79-.04.21.04.31.07.46-1.33.85-1.86,2.52-3.28,3.28-.14-.31.41-.5.07-.59-.62.11-.86.58-1.18.98-.24.14-.36.39-.59.52-.06.25-.66.23-.46.52.4.62.65-.62,1.12-.33-.01.25-.27.26-.33.46-.42.37-.81.76-1.18,1.18h-.07c-.31.26-.6.54-.85.85-2.99,2.98-6.65,5.28-10.36,7.54-.19.1-.26.3-.39.46-.2.05-.19-.11-.39-.07-2.06.94-4.28,1.7-6.29,2.69-.27.02-.36.21-.72.13-2.34.89-5.19,1.27-7.86,1.83-.57-.05-.94.11-1.51.07-.17.09-.45.08-.65.13-.73-.05-1.28.07-1.97.06h-3.34c-1.57.07-2.79-.23-4.19-.33,0-.18.4.05.39-.13h3.14c.22.15.72.02,1.05.07h1.18c.33.11,1.11.11,1.44,0h.72c.24-.04.65.08.79-.07,2.28-.13,4.35-.45,5.77-1.44-.67-.33-1.55,0-2.17.13-.37-.24-.85-.49-1.24-.06.14.15.31.34.06.52-.45,0-.59-.33-.65-.72-.39.55-1.88,0-2.1.72-.65-.14-1.27-.3-2.1-.26-.22-.11-.9-.11-1.11,0-.92-.09-1.46.2-2.3.2-3.39-1.22-9.16-.41-11.34-2.62,3.32.88,7.02,1.37,11.08,1.51.22.15.72.02,1.05.06h2.62c.33-.04.83.09,1.05-.06,1.17,0,2.24-.08,3.28-.2.12.02-.04.11.07.13.13.15.54.03.79.07h.2c.26-.04.7.09.85-.07.44,0,.76-.11,1.24-.06,5.94-1.01,10.33-3.56,14.81-6.03,4.42-2.53,8.35-5.55,11.99-8.85.29-.23.55-.5.79-.79,1.3-1.45,2.71-3.14,3.41-4.98-1.19,1.55-2.49,2.97-3.8,4.39-.27.21-.51.45-.72.72-.42.37-.81.76-1.18,1.18-.27.21-.51.45-.72.72-1.02.94-2.04,1.9-3.15,2.75-.51.47-1.08.89-1.64,1.31-.59.31-1.01,1.13-1.77,1.05.23-.36.83-.36.79-.98-1.35.18-1.64,1.42-2.95,1.64.61.99,1.16-.81,1.9-.52-1.72,1.43-3.67,2.63-6.03,3.41-.29.03-.17-.35-.39-.39-.87.6-1.92,1.35-3.21,1.31,1.94-.79,3.61-1.85,5.57-2.62.2.08.15.41.52.33.66-.26,1.03-.81,1.71-1.05-.51-.66-.95.71-1.44.26,4-2.38,7.59-5.17,10.88-8.26.59-.54,1.16-1.11,1.7-1.7,1.65-1.76,3.17-3.64,4.79-5.44.56.77-.95.94-.39,1.7.7-.43,1.38-.9,1.64-1.77,2.05-2.38,3.67-5.21,5.24-8.06-.34-.91.54-1.31.72-2.1-.28-2.92,2.08-4.63,1.77-7.8" class="cls-3"></path>
      </g>
    </g>
  </g>
</svg>